HIERARCHY
ROOT Hips
{
    OFFSET 0.000000 0.000000 0.000000
    CHANNELS 6 Xposition Yposition Zposition Zrotation Xrotation Yrotation
    JOINT Spine
    {
        OFFSET -0.000000 7.236184 0.000000
        CHANNELS 3 Zrotation Xrotation Yrotation
        JOINT Spine1
        {
            OFFSET -0.000000 20.420147 0.000000
            CHANNELS 3 Zrotation Xrotation Yrotation
            JOINT Neck
            {
                OFFSET -0.000000 20.336288 1.848754
                CHANNELS 3 Zrotation Xrotation Yrotation
                JOINT Head
                {
                    OFFSET -0.000000 12.354461 -1.764923
                    CHANNELS 3 Zrotation Xrotation Yrotation
                    End Site
                    {
                        OFFSET -0.000000 22.061537 0.000000
                    }
                }
            }
            JOINT LeftShoulder
            {
                OFFSET 3.573296 18.396038 -0.314103
                CHANNELS 3 Zrotation Xrotation Yrotation
                JOINT LeftArm
                {
                    OFFSET 10.880760 0.000000 0.000000
                    CHANNELS 3 Zrotation Xrotation Yrotation
                    JOINT LeftForeArm
                    {
                        OFFSET 27.185530 0.000000 0.000000
                        CHANNELS 3 Zrotation Xrotation Yrotation
                        JOINT LeftHand
                        {
                            OFFSET 27.825975 0.000000 0.000000
                            CHANNELS 3 Zrotation Xrotation Yrotation
                            End Site
                            {
                                OFFSET 13.236923 0.000000 0.000000
                            }
                        }
                    }
                }
            }
            JOINT RightShoulder
            {
                OFFSET -3.474926 18.396038 -0.314103
                CHANNELS 3 Zrotation Xrotation Yrotation
                JOINT RightArm
                {
                    OFFSET -10.880760 0.000000 0.000000
                    CHANNELS 3 Zrotation Xrotation Yrotation
                    JOINT RightForeArm
                    {
                        OFFSET -27.185530 0.000000 0.000000
                        CHANNELS 3 Zrotation Xrotation Yrotation
                        JOINT RightHand
                        {
                            OFFSET -27.825975 0.000000 0.000000
                            CHANNELS 3 Zrotation Xrotation Yrotation
                            End Site
                            {
                                OFFSET -13.236923 0.000000 0.000000
                            }
                        }
                    }
                }
            }
        }
    }
    JOINT LeftUpLeg
    {
        OFFSET 8.824615 0.000000 0.000000
        CHANNELS 3 Zrotation Xrotation Yrotation
        JOINT LeftLeg
        {
            OFFSET -0.000000 -35.111282 0.000000
            CHANNELS 3 Zrotation Xrotation Yrotation
            JOINT LeftFoot
            {
                OFFSET -0.000000 -42.324711 0.000000
                CHANNELS 3 Zrotation Xrotation Yrotation
                JOINT LeftToeBase
                {
                    OFFSET -0.000000 -5.735999 13.236923
                    CHANNELS 3 Zrotation Xrotation Yrotation
                    End Site
                    {
                        OFFSET -0.000000 0.000000 3.529846
                    }
                }
            }
        }
    }
    JOINT RightUpLeg
    {
        OFFSET -8.824615 0.000000 0.000000
        CHANNELS 3 Zrotation Xrotation Yrotation
        JOINT RightLeg
        {
            OFFSET -0.000000 -35.111282 0.000000
            CHANNELS 3 Zrotation Xrotation Yrotation
            JOINT RightFoot
            {
                OFFSET -0.000000 -42.324711 0.000000
                CHANNELS 3 Zrotation Xrotation Yrotation
                JOINT RightToeBase
                {
                    OFFSET -0.000000 -5.735999 13.236923
                    CHANNELS 3 Zrotation Xrotation Yrotation
                    End Site
                    {
                        OFFSET -0.000000 0.000000 3.529846
                    }
                }
            }
        }
    }
}
MOTION
Frames:    9
Frame Time:    0.008333
-14.701322    64.970093    117.162895    2.780683    -32.568604    -179.781265    -3.399348    -1.876003    0.424431    4.569555    4.336478    0.307098    -0.220461    -3.932254    -6.812968    23.390499    -20.121473    0.333877    26.777128    -21.765429    -12.913857    -13.816469    1.365964    -79.768288    16.955509    9.453567    -11.259432    41.100082    5.799144    -14.243999    -23.155613    -6.483162    15.228002    8.128606    -8.136374    54.451454    -26.136324    3.187493    20.896540    -38.935974    5.421530    7.533506    31.836226    -80.929161    26.658928    4.070541    76.393806    7.740279    -9.265816    -16.726427    -15.059018    -0.618085    -6.785320    0.694089    -34.766239    -76.060112    -25.849213    -0.840573    70.048584    8.605368    3.277182    -15.727486    -23.148418    0.512692    -4.743343    -0.558286    
-14.839114    65.419220    117.059258    2.795771    -32.362068    -179.775925    -3.370115    -2.101155    0.428369    4.604388    4.395634    0.313413    -0.016080    -3.177933    -6.837406    23.246363    -19.905228    0.181209    26.638563    -21.639093    -12.970047    -13.675615    1.442332    -79.947197    16.828171    9.269402    -11.232218    40.381508    5.733723    -14.149375    -22.958693    -6.269491    15.291133    7.797893    -7.885480    54.460480    -26.021210    2.959680    20.757479    -38.141998    5.236849    7.419355    28.541668    -80.252304    23.622244    4.634645    75.446800    7.418242    -9.204689    -16.620024    -15.160360    -0.606588    -6.702686    0.681064    -33.470776    -75.260895    -24.584314    -0.653671    69.045250    8.472384    3.325625    -15.472478    -23.070047    0.450854    -4.746692    -0.490951    
-14.980799    65.881493    116.954216    2.808403    -32.150455    -179.778091    -3.338835    -2.329503    0.431188    4.636331    4.456574    0.318754    0.192505    -2.391401    -6.853242    23.075853    -19.670986    0.028250    26.485760    -21.500940    -13.037463    -13.542464    1.509912    -80.130013    16.697617    9.075801    -11.192619    39.661461    5.664804    -14.028326    -22.747940    -6.050951    15.344813    7.495698    -7.657908    54.509106    -25.885782    2.706842    20.611010    -37.292519    5.027881    7.293047    25.639660    -79.523003    20.971828    5.077487    74.467873    7.184518    -9.121522    -16.521669    -15.222311    -0.594321    -6.615491    0.667172    -32.277096    -74.429337    -23.424580    -0.469991    67.999306    8.345914    3.379703    -15.206273    -22.978624    0.388111    -4.763073    -0.422637    
-15.125360    66.352310    116.848526    2.817954    -31.936028    -179.788254    -3.306056    -2.559480    0.433189    4.664426    4.518998    0.323033    0.405639    -1.580840    -6.860422    22.879971    -19.420374    -0.123894    26.321037    -21.350754    -13.114162    -13.419817    1.568154    -80.315453    16.567312    8.870907    -11.142961    38.942387    5.590057    -13.881701    -22.523069    -5.830534    15.385025    7.224627    -7.454907    54.599411    -25.731550    2.430016    20.459631    -36.389523    4.794791    7.158248    23.112263    -78.752388    18.687557    5.409868    73.466705    7.031060    -9.014972    -16.431461    -15.248631    -0.580957    -6.523350    0.652048    -31.186991    -73.574005    -22.371807    -0.292498    66.920372    8.226583    3.437866    -14.930698    -22.872339    0.327243    -4.794328    -0.356371    
-15.273173    66.831757    116.741928    2.824039    -31.719063    -179.806808    -3.272578    -2.791709    0.434292    4.689631    4.583121    0.326360    0.623489    -0.747300    -6.859584    22.659485    -19.151829    -0.275473    26.143633    -21.185928    -13.198525    -13.307338    1.616024    -80.503929    16.438820    8.651148    -11.085784    38.221096    5.506616    -13.708730    -22.284571    -5.608128    15.408246    6.985441    -7.276092    54.733871    -25.559641    2.127849    20.304314    -35.426323    4.535927    7.017390    20.909803    -77.944305    16.720240    5.646778    72.442375    6.947965    -8.887945    -16.347036    -15.245530    -0.566472    -6.424163    0.635663    -30.189384    -72.694778    -21.413731    -0.118419    65.806824    8.110140    3.499169    -14.645080    -22.749720    0.270008    -4.841884    -0.294061    
-15.423430    67.316071    116.635109    2.826031    -31.501501    -179.834244    -3.239522    -3.024650    0.434468    4.712588    4.648383    0.328730    0.844327    0.101917    -6.851190    22.417061    -18.866699    -0.425155    25.953854    -21.005234    -13.288363    -13.206480    1.652073    -80.694633    16.314144    8.416972    -11.023853    37.503326    5.413874    -13.510537    -22.034136    -5.386075    15.412492    6.780820    -7.122202    54.912457    -25.372721    1.801614    20.147757    -34.404911    4.252007    6.874251    19.002470    -77.108368    15.038877    5.799720    71.402702    6.927080    -8.737816    -16.269405    -15.216341    -0.551495    -6.314655    0.618718    -29.281231    -71.798500    -20.544380    0.055933    64.666168    7.991724    3.562017    -14.351564    -22.611660    0.217907    -4.906759    -0.237340    
-15.576683    67.805984    116.527809    2.823414    -31.283253    -179.870926    -3.207570    -3.258658    0.433439    4.734153    4.714381    0.329894    1.067584    0.967070    -6.835783    22.154327    -18.563482    -0.572715    25.749918    -20.805174    -13.382514    -13.116726    1.674710    -80.888039    16.193707    8.168738    -10.959525    36.792297    5.311812    -13.286779    -21.771896    -5.163592    15.397346    6.611204    -6.992639    55.135345    -25.172709    1.449388    19.990820    -33.320038    3.941186    6.730754    17.343449    -76.246529    13.597441    5.880729    70.345650    6.960209    -8.570695    -16.196712    -15.166688    -0.536117    -6.190022    0.601315    -28.451584    -70.883820    -19.750553    0.233898    63.495598    7.867958    3.625727    -14.050092    -22.458929    0.170491    -4.989002    -0.185718    
-15.731738    68.296562    116.421043    2.815469    -31.066616    -179.916977    -3.177602    -3.491174    0.431091    4.754225    4.779691    0.329442    1.290231    1.840028    -6.813832    21.876484    -18.245796    -0.715647    25.532074    -20.584467    -13.479795    -13.038988    1.682061    -81.081970    16.079308    7.912026    -10.895342    36.105469    5.202935    -13.040404    -21.499916    -4.942809    15.364522    6.478998    -6.888203    55.398582    -24.963591    1.073205    19.836601    -32.181679    3.605155    6.590093    15.908982    -75.369781    12.370568    5.899468    69.281349    7.039071    -8.392193    -16.128569    -15.100953    -0.519842    -6.049225    0.582895    -27.699650    -69.960075    -19.029451    0.414531    62.306408    7.739556    3.688373    -13.744497    -22.294466    0.126530    -5.087291    -0.137849    
-15.888778    68.787453    116.314888    2.801585    -30.851688    -179.972458    -3.150280    -3.721519    0.426876    4.773254    4.843707    0.327347    1.510454    2.720441    -6.785929    21.587374    -17.915140    -0.852612    25.298859    -20.341145    -13.579990    -12.973345    1.673297    -81.275795    15.971884    7.651311    -10.832976    35.455883    5.089756    -12.772996    -21.218813    -4.723615    15.315741    6.384298    -6.807369    55.699440    -24.748627    0.671070    19.686228    -30.993120    3.242139    6.453131    14.662535    -74.481171    11.322462    5.866446    68.210541    7.155688    -8.209850    -16.061571    -15.024804    -0.501398    -5.894782    0.562040    -27.017275    -69.028069    -18.371929    0.597045    61.099403    7.607660    3.748750    -13.435856    -22.119984    0.084725    -5.202063    -0.092318    
